<svg width="20" height="20" viewBox="0 0 20 20" fill="none" xmlns="http://www.w3.org/2000/svg">
<path d="M19.2016 9.88093V10.5551C19.2016 10.9274 18.8998 11.2293 18.5274 11.2293H10.7742V18.9825C10.7742 19.3548 10.4723 19.6566 10.1 19.6566H9.42584C9.05349 19.6566 8.75162 19.3548 8.75162 18.9825V11.2293H0.998414C0.626068 11.2293 0.324219 10.9274 0.324219 10.5551V9.88093C0.324219 9.50857 0.626068 9.2067 0.998414 9.2067H8.75162V1.45348C8.75162 1.08114 9.05349 0.779297 9.42584 0.779297H10.1C10.4723 0.779297 10.7742 1.08114 10.7742 1.45348V9.2067H18.5274C18.8998 9.2067 19.2016 9.50857 19.2016 9.88093Z" fill="#322D2D"/>
</svg>
