<svg width="14" height="8" viewBox="0 0 14 8" fill="none" xmlns="http://www.w3.org/2000/svg">
<path d="M0.96875 3.23654C0.689491 3.23654 0.463106 3.46293 0.463106 3.74219C0.463106 4.02145 0.68949 4.24783 0.96875 4.24783L0.96875 3.23654ZM13.3261 4.09973C13.5235 3.90227 13.5235 3.58211 13.3261 3.38464L10.1082 0.166745C9.91072 -0.0307211 9.59056 -0.0307211 9.39309 0.166745C9.19563 0.364211 9.19563 0.684367 9.39309 0.881834L12.2534 3.74219L9.39309 6.60254C9.19563 6.80001 9.19563 7.12017 9.39309 7.31763C9.59056 7.5151 9.91072 7.5151 10.1082 7.31763L13.3261 4.09973ZM0.96875 4.24783L12.9685 4.24783L12.9685 3.23654L0.96875 3.23654L0.96875 4.24783Z" fill="black"/>
</svg>
